# xmcd
#
# Track frame offsets:
#	150
#	17715
#	33317
#	50534
#	69765
#	85861
#	103660
#	121576
#	139463
#	154802
#	175937
#	192114
#	208929
#	226813
#	246339
#	261599
#	282994
#	299574
#	313383
#
# Disc length: 4415 seconds
#
# Revision: 0
# Processed by: cddbd v1.5.2PL0 Copyright (c) Steve Scherf et al.
# Submitted via: EasyCDDAExtractor 12.0.1.1
#
DISCID=1e113d13
DTITLE=Various Artist - Urban Weekend - CD3 - After Party
DYEAR=2006
DGENRE=R&B
TTITLE0=Pussycat Dolls Ft. Snoop Dogg - Buttons
TTITLE1=Ne-Yo - So Sick
TTITLE2=Chris Brown - Yo (Excuse Me)
TTITLE3=Usher - Burn
TTITLE4=Akon - Lonely
TTITLE5=Gwen Stefani Ft. Eve - Rich Girl
TTITLE6=2Pac Ft. Elton John - Ghetto Gospel
TTITLE7=Ray J - One Wish
TTITLE8=T-Pain - I'm Sprung
TTITLE9=Snoop Dogg - Let's Get Blown
TTITLE10=LL Cool J - Hush
TTITLE11=Ciara Ft. Petey Pablo - Goodies
TTITLE12=Keyshia Cole - I Should Have Cheated
TTITLE13=Bobby Valentino - Slow Down
TTITLE14=Lemar - Time To Grow
TTITLE15=Aaliyah - Try Again
TTITLE16=Soundbwoy Ent - Never Wanna Say
TTITLE17=R. Kelly - Ignition (Remix)
TTITLE18=Nelly Ft. Kelly Rowland - Dilemma
EXTD=
EXTT0=
EXTT1=
EXTT2=
EXTT3=
EXTT4=
EXTT5=
EXTT6=
EXTT7=
EXTT8=
EXTT9=
EXTT10=
EXTT11=
EXTT12=
EXTT13=
EXTT14=
EXTT15=
EXTT16=
EXTT17=
EXTT18=
PLAYORDER=
